# xmcd
#
# Track frame offsets:
#	150
#	10618
#	21648
#	36169
#	52311
#	63265
#	74318
#	87576
#	101602
#	114438
#	128534
#	140596
#	155221
#	168356
#	179057
#	192586
#	204917
#	218681
#	229032
#	241818
#	254831
#	268830
#	280243
#	290584
#	303367
#
# Disc length: 4213
#
# Revision: 1
# Processed by: cddbd v1.5.1PL0 Copyright (c) Steve Scherf et al.
# Submitted via: CDex 1.51
# Normalized: r0:TDELIM( - )
#
DISCID=82107319
DTITLE=Various Artist - Down Home Blue Classics 1943-1953 - CD1 - Chicago and Detroit 1948-1953
DYEAR=2004
DGENRE=Blues
TTITLE0=Snooky and Moody - Boogie
TTITLE1=Floyd Jones - Hard Times
TTITLE2=Walter Mitchell - Stop Messing Around
TTITLE3=Robert Richard - Cadillac Woman
TTITLE4=Big Maceo - Big City Woman
TTITLE5=Baby Boy Warren - Please Don't Think I'm Nosey
TTITLE6=Eddie Burns - Notoriety Woman
TTITLE7=Muddy Waters - Rolling Stone
TTITLE8=Junior Wells - Cut That Out
TTITLE9=Tony Hollins - Crawlin' King Snake
TTITLE10=Robert Nighthawk - Crying Won't Help You
TTITLE11=Rocky Fuller - Soon One Morning
TTITLE12=Little Walter - Mean Old World
TTITLE13=Morris Pejoe - Tired Of Crying Over You
TTITLE14=John Brim - It Was A Dream
TTITLE15=Jimmy Rogers - The Last Time
TTITLE16=Blue Smitty - Sad Story
TTITLE17=L C Greene - Little School Girl
TTITLE18=Robert Henry - Something's Wrong With My Little Machine
TTITLE19=Johnny Shines - Brutal Hearted Woman
TTITLE20=J B Lenoir - I'll Die Trying
TTITLE21=Little Hudson - I'm Looking For A Woman
TTITLE22=John Lee Hooker - I'm The Boogie Man
TTITLE23=Harvey Hill Jr - She Fool Me
TTITLE24=Jimmy Reed - High And Lonesome
EXTD=YEAR: 2004
EXTT0=
EXTT1=
EXTT2=
EXTT3=
EXTT4=
EXTT5=
EXTT6=
EXTT7=
EXTT8=
EXTT9=
EXTT10=
EXTT11=
EXTT12=
EXTT13=
EXTT14=
EXTT15=
EXTT16=
EXTT17=
EXTT18=
EXTT19=
EXTT20=
EXTT21=
EXTT22=
EXTT23=
EXTT24=
PLAYORDER=
